<?xml version="1.0" encoding="UTF-8" standalone="no"?>
<svg
   xmlns:dc="http://purl.org/dc/elements/1.1/"
   xmlns:cc="http://creativecommons.org/ns#"
   xmlns:rdf="http://www.w3.org/1999/02/22-rdf-syntax-ns#"
   xmlns:svg="http://www.w3.org/2000/svg"
   xmlns="http://www.w3.org/2000/svg"
   xmlns:sodipodi="http://sodipodi.sourceforge.net/DTD/sodipodi-0.dtd"
   xmlns:inkscape="http://www.inkscape.org/namespaces/inkscape"
   inkscape:version="1.0 (4035a4f, 2020-05-01)"
   sodipodi:docname="gamepad-entry-icon.svg"
   id="svg1039"
   style="fill-rule:evenodd;clip-rule:evenodd;stroke-linecap:round;stroke-linejoin:round;stroke-miterlimit:1.5;"
   xml:space="preserve"
   version="1.1"
   viewBox="0 0 224 162"
   height="100%"
   width="100%"
   inkscape:export-filename="/Users/ky/Documents/workspace/xcratch/xcx-gamepad/src/entry/entry-icon.png"
   inkscape:export-xdpi="96"
   inkscape:export-ydpi="96"><metadata
   id="metadata1045"><rdf:RDF><cc:Work
       rdf:about=""><dc:format>image/svg+xml</dc:format><dc:type
         rdf:resource="http://purl.org/dc/dcmitype/StillImage" /><dc:title /></cc:Work></rdf:RDF></metadata><defs
   id="defs1043">
        
        <clipPath
   id="_clip1">
            <rect
   x="363.928"
   y="335.075"
   width="223.693"
   height="161.579"
   id="rect1001" />
        </clipPath>
        
    
            
            
            
            
            
            
            
            
        
                
            
                
            
                
            
                
            
                
            
                
            
                
            
                
            </defs><sodipodi:namedview
   inkscape:current-layer="svg1039"
   inkscape:window-maximized="0"
   inkscape:window-y="50"
   inkscape:window-x="2"
   inkscape:cy="239.66654"
   inkscape:cx="89.521614"
   inkscape:zoom="0.89390207"
   showgrid="false"
   id="namedview1041"
   inkscape:window-height="905"
   inkscape:window-width="1655"
   inkscape:pageshadow="2"
   inkscape:pageopacity="0"
   guidetolerance="10"
   gridtolerance="10"
   objecttolerance="10"
   borderopacity="1"
   bordercolor="#666666"
   pagecolor="#ffffff"
   inkscape:document-rotation="0"
   inkscape:snap-object-midpoints="true"
   inkscape:snap-bbox="true" />
    <rect
   style="fill:#ff0009;fill-opacity:1;stroke:none;stroke-width:3;stroke-linecap:round;stroke-linejoin:round;stroke-miterlimit:1.5"
   id="rect4982"
   width="600"
   height="372"
   x="-24.22472"
   y="-2.2022471"
   ry="2.08761" /><g
   id="g4992"
   transform="matrix(1.1100515,0,0,1,-41.772871,21.434982)"><path
     id="path1004"
     style="fill:#ebebeb;stroke:#000000;stroke-width:15.9307;stroke-miterlimit:1.5;stroke-dasharray:none"
     d="m 340.74955,59.554528 c 29.61169,2.737739 53.52927,19.984468 70.68997,65.861812 20.93136,55.9556 6.5002,125.31052 -22.04462,136.9872 -20.73757,8.4821 -28.74995,0.72802 -52.31705,-30.73718 H 235.07123 c -23.57535,31.48343 -31.59288,39.23978 -52.33354,30.75656 -28.54483,-11.67669 -42.97598,-81.02933 -22.04565,-136.98379 17.16173,-45.878486 41.07828,-63.124077 70.691,-65.861815 v -0.210771 h 109.36651 z" /><ellipse
     ry="24.820379"
     rx="23.009783"
     id="circle1008"
     style="fill:#ebebeb;stroke:#000000;stroke-width:15.9294px"
     cy="182.50099"
     cx="320.59619" /><ellipse
     ry="24.820379"
     rx="23.009783"
     id="circle1012"
     style="fill:#ebebeb;stroke:#000000;stroke-width:15.9294px"
     cy="109.93095"
     cx="229.38632" /><path
     id="path1016"
     style="fill:#ebebeb;stroke:#000000;stroke-width:15.9285px"
     d="m 237.76252,171.01746 h -9.59573 c -2.9379,0 -5.32386,2.57284 -5.32386,5.74279 v 11.4847 c 0,3.16908 2.38596,5.74278 5.32386,5.74278 h 9.59573 v 10.3508 c 0,3.16909 2.38595,5.74279 5.32386,5.74279 h 10.64692 c 2.9379,0 5.32386,-2.5737 5.32386,-5.74279 v -10.3508 h 9.59572 c 2.93792,0 5.32387,-2.5737 5.32387,-5.74278 v -11.4847 c 0,-3.16995 -2.38595,-5.74279 -5.32387,-5.74279 h -9.59572 v -10.35079 c 0,-3.16909 -2.38596,-5.74279 -5.32386,-5.74279 h -10.64692 c -2.93791,0 -5.32386,2.5737 -5.32386,5.74279 z" /><ellipse
     ry="12.412066"
     rx="11.50663"
     id="circle1020"
     cy="109.93477"
     cx="327.12582"
     style="stroke-width:7.58779" /><ellipse
     ry="12.412066"
     rx="11.50663"
     id="circle1024"
     cy="129.43269"
     cx="345.21417"
     style="stroke-width:7.58779" /><ellipse
     rx="11.50663"
     ry="12.412066"
     id="circle1028"
     cy="109.93477"
     cx="363.28976"
     style="stroke-width:7.58779" /><ellipse
     ry="12.412066"
     rx="11.50663"
     id="circle1032"
     cy="90.436852"
     cx="345.21417"
     style="stroke-width:7.58779" /></g>
</svg>
