<?xml version="1.0" encoding="UTF-8" standalone="no"?>
<svg
   xmlns:dc="http://purl.org/dc/elements/1.1/"
   xmlns:cc="http://creativecommons.org/ns#"
   xmlns:rdf="http://www.w3.org/1999/02/22-rdf-syntax-ns#"
   xmlns:svg="http://www.w3.org/2000/svg"
   xmlns="http://www.w3.org/2000/svg"
   xmlns:sodipodi="http://sodipodi.sourceforge.net/DTD/sodipodi-0.dtd"
   xmlns:inkscape="http://www.inkscape.org/namespaces/inkscape"
   inkscape:version="1.0 (4035a4f, 2020-05-01)"
   sodipodi:docname="gamepad-costume-01.svg"
   id="svg2876"
   xml:space="preserve"
   viewBox="0 0 269.71368 221.94019"
   version="1.1"
   stroke-miterlimit="1.5"
   stroke-linejoin="round"
   stroke-linecap="round"
   fill-rule="evenodd"
   clip-rule="evenodd"><metadata
     id="metadata2882"><rdf:RDF><cc:Work
         rdf:about=""><dc:format>image/svg+xml</dc:format><dc:type
           rdf:resource="http://purl.org/dc/dcmitype/StillImage" /><dc:title></dc:title></cc:Work></rdf:RDF></metadata><defs
     id="defs2880" /><sodipodi:namedview
     inkscape:current-layer="svg2876"
     inkscape:window-maximized="0"
     inkscape:window-y="23"
     inkscape:window-x="0"
     inkscape:cy="115.40047"
     inkscape:cx="75.408326"
     inkscape:zoom="2.6195301"
     showgrid="false"
     id="namedview2878"
     inkscape:window-height="946"
     inkscape:window-width="1651"
     inkscape:pageshadow="2"
     inkscape:pageopacity="0"
     guidetolerance="10"
     gridtolerance="10"
     objecttolerance="10"
     borderopacity="1"
     bordercolor="#666666"
     pagecolor="#ffffff" /><path
     id="path2828"
     stroke-width="4"
     stroke-miterlimit="1.5"
     stroke="#000"
     fill="#ebebeb"
     d="m188.54808 36.573c29.07442 2.436819 52.55804 17.787861 69.40738 58.622566 20.55158 49.805204 6.38227 111.53691-21.64465 121.93015-20.3613 7.54977-28.22831.64799-51.36781-27.35869h-100.15581c-23.147601 28.02291-31.019669 34.92672-51.384012 27.37593-28.026907-10.39324-42.196223-72.12293-21.645654-121.92711 16.850352-40.835719 40.332958-56.185748 69.408393-58.622566v-.187604h107.38216z" /><path
     style="stroke-width:3;stroke-miterlimit:1.5;stroke-dasharray:none"
     id="path2838"
     stroke-width="4"
     stroke-miterlimit="1.5"
     stroke="#000"
     fill="#ebebeb"
     d="m136.05915 74.3535-10.82226 6.230469h2.67187c-.0234.125524-.0371.254214-.0371.386719v9.15039c0 1.15653.93135 2.087891 2.08789 2.087891h12.22657c1.15653 0 2.08789-.931361 2.08789-2.087891v-9.15039c0-.132509-.0157-.261191-.0391-.386719h2.67188z" /><path
     d="m 101.68806,110.52342 c -3.206108,-0.0827 -6.082677,2.79391 -6.000003,6 -0.08268,3.20611 2.793909,6.08268 6.000003,6 6.65794,-0.009 13.31669,0.0187 19.97413,-0.0141 3.20436,-0.13737 5.87648,-3.20475 5.57423,-6.39749 -0.13815,-3.14239 -3.08413,-5.77722 -6.21984,-5.58837 -6.44284,0 -12.88568,0 -19.32852,0 z"
     style="font-variant-ligatures:normal;font-variant-position:normal;font-variant-caps:normal;font-variant-numeric:normal;font-variant-alternates:normal;font-variant-east-asian:normal;font-feature-settings:normal;font-variation-settings:normal;text-indent:0;text-decoration:none;text-decoration-line:none;text-decoration-style:solid;text-decoration-color:#000000;text-transform:none;text-orientation:mixed;white-space:normal;shape-padding:0;shape-margin:0;inline-size:0;isolation:auto;mix-blend-mode:normal;stroke-width:3;stroke-miterlimit:1.5;stroke-dasharray:none;stroke:#000000;stroke-opacity:1;fill:#ebebeb;fill-opacity:1"
     id="path2840" /><path
     d="m 161.04157,100.74412 c -3.3226,-0.0921 -6.24041,2.99339 -6,6.30175 0,1.15983 0,2.31967 0,3.4795 -1.9971,0.10046 -4.07484,-0.28833 -5.99157,0.42274 -3.23062,1.17127 -4.7867,5.35288 -3.10799,8.35119 1.11196,2.24514 3.67865,3.45696 6.12494,3.22607 0.99154,0 1.98308,0 2.97462,0 0.10051,1.99775 -0.28842,4.07616 0.42274,5.99353 1.17127,3.23062 5.35288,4.7867 8.35119,3.10799 2.24514,-1.11196 3.45696,-3.67865 3.22607,-6.12494 0,-0.99219 0,-1.98439 0,-2.97658 1.99775,-0.10051 4.07616,0.28842 5.99353,-0.42274 3.23062,-1.17127 4.7867,-5.35288 3.10799,-8.35119 -1.11196,-2.24514 -3.67865,-3.45696 -6.12494,-3.22607 -0.99219,0 -1.98439,0 -2.97658,0 -0.10051,-1.99775 0.28842,-4.07616 -0.42274,-5.99353 -0.86292,-2.25008 -3.1673,-3.81521 -5.57726,-3.78772 z"
     style="font-variant-ligatures:normal;font-variant-position:normal;font-variant-caps:normal;font-variant-numeric:normal;font-variant-alternates:normal;font-variant-east-asian:normal;font-feature-settings:normal;font-variation-settings:normal;text-indent:0;text-decoration:none;text-decoration-line:none;text-decoration-style:solid;text-decoration-color:#000000;text-transform:none;text-orientation:mixed;white-space:normal;shape-padding:0;shape-margin:0;inline-size:0;isolation:auto;mix-blend-mode:normal;stroke:#000000;stroke-opacity:1;fill:#ebebeb;fill-opacity:1;stroke-width:3;stroke-miterlimit:1.5;stroke-dasharray:none"
     id="path2842" /><path
     style="fill:#ebebeb;fill-opacity:1;stroke:#000000;stroke-opacity:1;stroke-width:3;stroke-miterlimit:1.5;stroke-dasharray:none"
     d="m 69.543526,17.892501 c -2.072925,0.0282 -3.835935,1.313381 -5.891065,1.532009 -21.412352,5.613816 -41.06545,18.450376 -53.8068202,36.679679 -1.6724652,2.944434 -4.8017413,5.602209 -4.6204771,9.255966 0.1220123,4.077253 4.9854343,6.899492 8.5859973,4.982815 2.962874,-1.484111 3.814087,-5.060989 5.897541,-7.417469 10.633425,-15.306068 26.893359,-26.267174 44.749185,-31.332604 2.906396,-1.18685 6.412456,-0.965372 8.963887,-2.935901 3.398746,-2.67144 2.548736,-8.736466 -1.521886,-10.282426 -0.742263,-0.317475 -1.549059,-0.482527 -2.356362,-0.482069 z"
     id="path2844" /><path
     style="fill:#ebebeb;fill-opacity:1;stroke:#000000;stroke-opacity:1;stroke-width:3;stroke-miterlimit:1.5;stroke-dasharray:none"
     d="M 42.834493,2.0760955 C 37.679082,1.4610371 33.121549,4.50428 28.689584,6.6456727 24.856808,8.581981 21.349183,11.656075 20.33975,15.998118 16.543936,24.534168 9.8856619,31.313638 3.9487888,38.366492 c -2.3257271,3.351336 -0.092074,8.511904 3.9419723,9.112327 3.0342179,0.69683 5.6893459,-1.496703 7.3286839,-3.813005 6.601436,-7.553456 13.688957,-15.272079 16.890447,-24.98425 1.529894,-0.930928 5.25424,-3.276935 7.913731,-4.188346 2.069956,-0.774027 5.528213,0.560122 7.787132,1.84085 2.215789,1.189619 4.060346,3.619062 6.860998,3.316918 4.078269,-0.0054 7.038409,-4.784622 5.227679,-8.438401 C 57.785798,7.3878245 53.367639,5.4886783 49.517299,3.8802263 47.349379,3.0901061 45.142755,2.3186325 42.834493,2.0760955 Z"
     id="path2846" /><path
     style="fill:#ebebeb;fill-opacity:1;stroke:#000000;stroke-opacity:1;stroke-width:3;stroke-miterlimit:1.5;stroke-dasharray:none"
     d="m 200.16267,17.892501 c -3.85071,-0.137786 -6.88032,3.960179 -5.82726,7.615532 0.60546,2.840024 3.39072,4.535837 6.12924,4.803911 17.88504,4.179496 34.70174,13.818823 46.23233,28.265902 2.78427,3.261046 4.96923,6.97031 7.42134,10.460777 2.61511,3.019782 8.02961,2.261205 9.71397,-1.360995 1.3487,-2.440523 0.46713,-5.41574 -1.20561,-7.458914 -11.27416,-18.034526 -29.05107,-31.667054 -49.13751,-38.500955 -4.03086,-1.477129 -8.24595,-2.393818 -12.29685,-3.735982 -0.3398,-0.0593 -0.68472,-0.0892 -1.02965,-0.08928 z"
     id="path2848" /><path
     style="fill:#ebebeb;fill-opacity:1;stroke:#000000;stroke-opacity:1;stroke-width:3;stroke-miterlimit:1.5;stroke-dasharray:none"
     d="m 226.59821,2.0760955 c -4.98077,0.8012208 -9.88096,2.6904259 -13.95469,5.6967188 -2.25367,1.4935826 -4.12712,4.0870437 -3.53915,6.9144597 0.51971,3.79585 5.11338,6.161083 8.50505,4.379229 1.79614,-1.057378 3.27394,-2.613146 5.25973,-3.384497 2.19043,-0.932039 5.1164,-2.063444 6.97486,-0.998679 2.61877,1.222247 5.44686,2.247229 7.52826,4.33407 0.42513,1.019891 1.84362,4.810644 3.05472,6.697423 4.33042,7.500032 10.16379,13.984949 15.99039,20.339492 2.75936,2.660312 7.83183,1.67022 9.39166,-1.829335 1.35509,-2.588257 0.3439,-5.798985 -1.80466,-7.624976 C 258.66547,30.48238 253.11089,24.328109 249.5065,16.980716 248.51679,14.10921 247.32845,11.120229 244.7737,9.2665295 240.66589,6.2314518 235.95751,4.0131911 231.14174,2.3677061 229.66009,1.9993268 228.11472,1.9134612 226.59821,2.0760955 Z"
     id="path2850" /><path
     style="stroke-width:3;stroke-miterlimit:1.5;stroke-dasharray:none"
     id="path2852"
     stroke-width="4"
     stroke-miterlimit="1.5"
     stroke-linejoin="round"
     stroke-linecap="butt"
     stroke="#000"
     fill="#ebebeb"
     d="m99.773466 144.37339h-11.100257l-7.576294 8.30627 7.576294 8.3519h11.081947z" /><path
     style="stroke-width:3;stroke-miterlimit:1.5;stroke-dasharray:none"
     id="path2854"
     stroke-width="4"
     stroke-miterlimit="1.5"
     stroke-linejoin="round"
     stroke-linecap="butt"
     stroke="#000"
     fill="#ebebeb"
     d="m52.420364 144.37339h11.100257l7.576294 8.30627-7.576294 8.3519h-11.081947z" /><path
     style="stroke-width:3;stroke-miterlimit:1.5;stroke-dasharray:none"
     id="path2856"
     stroke-width="4"
     stroke-miterlimit="1.5"
     stroke-linejoin="round"
     stroke-linecap="butt"
     stroke="#000"
     fill="#ebebeb"
     d="m84.578636 176.13182v-11.10026l-8.30627-7.57629-8.3519 7.57629v11.08195z" /><path
     style="stroke-width:3;stroke-miterlimit:1.5;stroke-dasharray:none"
     id="path2858"
     stroke-width="4"
     stroke-miterlimit="1.5"
     stroke-linejoin="round"
     stroke-linecap="butt"
     stroke="#000"
     fill="#ebebeb"
     d="m67.920466 129.27313v11.10026l8.30627 7.57629 8.3519-7.57629v-11.08195z" /><circle
     id="circle2860"
     stroke-width="2"
     stroke-miterlimit="1.5"
     stroke-linejoin="round"
     stroke-linecap="round"
     stroke="#000"
     fill="none"
     clip-rule="evenodd"
     r="22.221256"
     cy="152.70129"
     cx="190.31812" /><circle
     id="circle2862"
     style="paint-order:normal;stroke-width:3;stroke-miterlimit:1.5;stroke-dasharray:none"
     stroke-width="4"
     stroke-miterlimit="1.5"
     stroke-linejoin="round"
     stroke-linecap="square"
     stroke="#000"
     fill="none"
     r="5.0490932"
     cy="152.70129"
     cx="190.31812" /><circle
     id="circle2864"
     stroke-width="2"
     stroke-miterlimit="1.5"
     stroke-linejoin="round"
     stroke-linecap="round"
     stroke="#000"
     fill="none"
     clip-rule="evenodd"
     r="22.221256"
     cy="94.724785"
     cx="59.012272" /><circle
     id="circle2866"
     style="paint-order:normal;stroke-width:3;stroke-miterlimit:1.5;stroke-dasharray:none"
     stroke-width="4"
     stroke-miterlimit="1.5"
     stroke-linejoin="round"
     stroke-linecap="square"
     stroke="#000"
     fill="none"
     r="5.0490932"
     cy="94.724785"
     cx="59.012272" /><ellipse
     id="ellipse2868"
     style="paint-order:normal"
     stroke-width="3"
     stroke-miterlimit="1.5"
     stroke-linejoin="round"
     stroke-linecap="square"
     stroke="#000"
     fill="#ebebeb"
     ry="9.2509518"
     rx="9.6364069"
     cy="112.55296"
     cx="211.0592" /><ellipse
     id="ellipse2870"
     style="paint-order:normal;stroke:#000000;stroke-opacity:1"
     stroke-width="3"
     stroke-miterlimit="1.5"
     stroke-linejoin="round"
     stroke-linecap="square"
     stroke="#000"
     fill="#ebebeb"
     ry="9.2509518"
     rx="9.6364069"
     cy="94.412956"
     cx="229.19922" /><ellipse
     id="ellipse2872"
     style="paint-order:normal;stroke:#000000;stroke-opacity:1"
     stroke-width="3"
     stroke-miterlimit="1.5"
     stroke-linejoin="round"
     stroke-linecap="square"
     stroke="#000"
     fill-rule="evenodd"
     fill="#ebebeb"
     clip-rule="evenodd"
     ry="9.2509518"
     rx="9.6364069"
     cy="94.412956"
     cx="192.90921" /><ellipse
     id="ellipse2874"
     style="paint-order:normal"
     stroke-width="3"
     stroke-miterlimit="1.5"
     stroke-linejoin="round"
     stroke-linecap="square"
     stroke="#000"
     fill-rule="evenodd"
     fill="#ebebeb"
     clip-rule="evenodd"
     ry="9.2509518"
     rx="9.6364069"
     cy="76.272957"
     cx="211.0592" /><path
     id="path4399"
     d="m 69.543526,17.892501 c -2.072925,0.0282 -3.835935,1.313381 -5.891065,1.532009 -21.412352,5.613816 -41.06545,18.450376 -53.8068202,36.679679 -1.6724652,2.944434 -4.8017413,5.602209 -4.6204771,9.255966 0.1220123,4.077253 4.9854343,6.899492 8.5859973,4.982815 2.962874,-1.484111 3.814087,-5.060989 5.897541,-7.417469 10.633425,-15.306068 26.893359,-26.267174 44.749185,-31.332604 2.906396,-1.18685 6.412456,-0.965372 8.963887,-2.935901 3.398746,-2.67144 2.548736,-8.736466 -1.521886,-10.282426 -0.742263,-0.317475 -1.549059,-0.482527 -2.356362,-0.482069 z"
     style="fill:#ebebeb;fill-opacity:1;stroke:#000000;stroke-opacity:1;stroke-width:3;stroke-miterlimit:1.5;stroke-dasharray:none" /><path
     id="path4401"
     d="M 42.834493,2.0760955 C 37.679082,1.4610371 33.121549,4.50428 28.689584,6.6456727 24.856808,8.581981 21.349183,11.656075 20.33975,15.998118 16.543936,24.534168 9.8856619,31.313638 3.9487888,38.366492 c -2.3257271,3.351336 -0.092074,8.511904 3.9419723,9.112327 3.0342179,0.69683 5.6893459,-1.496703 7.3286839,-3.813005 6.601436,-7.553456 13.688957,-15.272079 16.890447,-24.98425 1.529894,-0.930928 5.25424,-3.276935 7.913731,-4.188346 2.069956,-0.774027 5.528213,0.560122 7.787132,1.84085 2.215789,1.189619 4.060346,3.619062 6.860998,3.316918 4.078269,-0.0054 7.038409,-4.784622 5.227679,-8.438401 C 57.785798,7.3878245 53.367639,5.4886783 49.517299,3.8802263 47.349379,3.0901061 45.142755,2.3186325 42.834493,2.0760955 Z"
     style="fill:#ebebeb;fill-opacity:1;stroke:#000000;stroke-opacity:1;stroke-width:3;stroke-miterlimit:1.5;stroke-dasharray:none" /><path
     id="path4403"
     d="m 200.16267,17.892501 c -3.85071,-0.137786 -6.88032,3.960179 -5.82726,7.615532 0.60546,2.840024 3.39072,4.535837 6.12924,4.803911 17.88504,4.179496 34.70174,13.818823 46.23233,28.265902 2.78427,3.261046 4.96923,6.97031 7.42134,10.460777 2.61511,3.019782 8.02961,2.261205 9.71397,-1.360995 1.3487,-2.440523 0.46713,-5.41574 -1.20561,-7.458914 -11.27416,-18.034526 -29.05107,-31.667054 -49.13751,-38.500955 -4.03086,-1.477129 -8.24595,-2.393818 -12.29685,-3.735982 -0.3398,-0.0593 -0.68472,-0.0892 -1.02965,-0.08928 z"
     style="fill:#ebebeb;fill-opacity:1;stroke:#000000;stroke-opacity:1;stroke-width:3;stroke-miterlimit:1.5;stroke-dasharray:none" /><path
     id="path4405"
     d="m 226.59821,2.0760955 c -4.98077,0.8012208 -9.88096,2.6904259 -13.95469,5.6967188 -2.25367,1.4935826 -4.12712,4.0870437 -3.53915,6.9144597 0.51971,3.79585 5.11338,6.161083 8.50505,4.379229 1.79614,-1.057378 3.27394,-2.613146 5.25973,-3.384497 2.19043,-0.932039 5.1164,-2.063444 6.97486,-0.998679 2.61877,1.222247 5.44686,2.247229 7.52826,4.33407 0.42513,1.019891 1.84362,4.810644 3.05472,6.697423 4.33042,7.500032 10.16379,13.984949 15.99039,20.339492 2.75936,2.660312 7.83183,1.67022 9.39166,-1.829335 1.35509,-2.588257 0.3439,-5.798985 -1.80466,-7.624976 C 258.66547,30.48238 253.11089,24.328109 249.5065,16.980716 248.51679,14.10921 247.32845,11.120229 244.7737,9.2665295 240.66589,6.2314518 235.95751,4.0131911 231.14174,2.3677061 229.66009,1.9993268 228.11472,1.9134612 226.59821,2.0760955 Z"
     style="fill:#ebebeb;fill-opacity:1;stroke:#000000;stroke-opacity:1;stroke-width:3;stroke-miterlimit:1.5;stroke-dasharray:none" /></svg>
