<?xml version="1.0" encoding="UTF-8" standalone="no"?>
<svg
   xmlns:dc="http://purl.org/dc/elements/1.1/"
   xmlns:cc="http://creativecommons.org/ns#"
   xmlns:rdf="http://www.w3.org/1999/02/22-rdf-syntax-ns#"
   xmlns:svg="http://www.w3.org/2000/svg"
   xmlns="http://www.w3.org/2000/svg"
   width="55"
   height="52.238705"
   viewBox="-0.1 -1.2 55.000001 52.238702"
   version="1.1"
   xml:space="preserve"
   style="clip-rule:evenodd;fill-rule:evenodd;stroke-linecap:round;stroke-linejoin:round;stroke-miterlimit:1.5"
   id="svg1039"><metadata
   id="metadata1045"><rdf:RDF><cc:Work
       rdf:about=""><dc:format>image/svg+xml</dc:format><dc:type
         rdf:resource="http://purl.org/dc/dcmitype/StillImage" /><dc:title></dc:title></cc:Work></rdf:RDF></metadata><defs
   id="defs1043">
        
        <clipPath
   id="_clip1">
            <rect
   id="rect1001"
   height="161.57899"
   width="223.69299"
   y="335.07501"
   x="363.92801" />
        </clipPath>
        
    
            
            
            
            
            
            
            
            
        
                
            
                
            
                
            
                
            
                
            
                
            
                
            
                
            </defs>
    <g
   transform="matrix(0.23689879,0,0,0.23689879,0.6867911,5.8473798)"
   id="g5613"><path
     d="m 155.53934,5.9358272 c 23.16436,1.9854235 41.87438,14.4928478 55.29869,47.7633568 16.37399,40.579313 5.08492,90.875876 -17.24486,99.343876 -16.22239,6.15126 -22.49024,0.52796 -40.92609,-22.29078 H 72.870301 C 54.427995,153.58424 48.156112,159.20919 31.931302,153.05711 9.6015258,144.58911 -1.6875422,94.294195 14.685638,53.715709 28.110759,20.444374 46.81997,7.9377753 69.985137,5.9523518 v -0.152852 h 85.554203 z"
     style="fill:#ebebeb;stroke:#000000;stroke-width:11.999;stroke-miterlimit:1.5;stroke-dasharray:none"
     id="path1004" /><circle
     cx="139.77396"
     cy="95.09729"
     style="fill:#ebebeb;stroke:#000000;stroke-width:11.998px"
     id="circle1008"
     r="17.999878" /><circle
     cx="68.423164"
     cy="42.469086"
     style="fill:#ebebeb;stroke:#000000;stroke-width:11.998px"
     id="circle1012"
     r="17.999878" /><path
     d="m 74.975614,86.769369 h -7.506455 c -2.298239,0 -4.164699,1.865835 -4.164699,4.164699 v 8.328772 c 0,2.29823 1.86646,4.16469 4.164699,4.16469 h 7.506455 v 7.50646 c 0,2.29824 1.86646,4.1647 4.164698,4.1647 h 8.328773 c 2.298238,0 4.164698,-1.86646 4.164698,-4.1647 v -7.50646 h 7.506455 c 2.298242,0 4.164702,-1.86646 4.164702,-4.16469 v -8.328772 c 0,-2.298864 -1.86646,-4.164699 -4.164702,-4.164699 h -7.506455 v -7.506455 c 0,-2.298239 -1.86646,-4.164698 -4.164698,-4.164698 h -8.328773 c -2.298238,0 -4.164698,1.866459 -4.164698,4.164698 z"
     style="fill:#ebebeb;stroke:#000000;stroke-width:11.9973px"
     id="path1016" /><circle
     style="stroke-width:5.71511"
     cx="144.8819"
     cy="42.471859"
     id="circle1020"
     r="9.0012989" /><circle
     style="stroke-width:5.71511"
     cx="159.03189"
     cy="56.611858"
     id="circle1024"
     r="9.0012989" /><circle
     style="stroke-width:5.71511"
     cx="173.17189"
     cy="42.471859"
     id="circle1028"
     r="9.0012989" /><circle
     style="stroke-width:5.71511"
     cx="159.03189"
     cy="28.331861"
     id="circle1032"
     r="9.0012989" /></g>
</svg>
